<svg width="394" height="607" viewBox="0 0 394 607" fill="none" xmlns="http://www.w3.org/2000/svg">
<g clip-path="url(#clip0_258_122)">
<path d="M68.3408 653.302H67.544V649.334H68.3408V653.302ZM68.3408 645.365H67.544V641.397H68.3408V645.365ZM68.3408 637.428H67.544V633.459H68.3408V637.428ZM68.3408 629.491H67.544V625.522H68.3408V629.491ZM68.3408 621.554H67.544V617.585H68.3408V621.554ZM68.3408 613.616H67.544V609.648H68.3408V613.616ZM68.3408 605.679H67.544V601.711H68.3408V605.679ZM68.3408 597.742H67.544V593.774H68.3408V597.742ZM68.3408 589.805H67.544V585.836H68.3408V589.805ZM68.3408 581.868H67.544V577.899H68.3408V581.868ZM68.3408 573.93H67.544V569.962H68.3408V573.93ZM68.3408 565.993H67.544V562.025H68.3408V565.993ZM68.3408 558.056H67.544V554.087H68.3408V558.056ZM68.3408 550.119H67.544V546.15H68.3408V550.119ZM68.3408 542.182H67.544V538.213H68.3408V542.182ZM68.3408 534.245H67.544V530.276H68.3408V534.245ZM68.3408 526.307H67.544V522.339H68.3408V526.307ZM68.3408 518.37H67.544V514.402H68.3408V518.37ZM68.3408 510.433H67.544V506.464H68.3408V510.433ZM68.3408 502.496H67.544V498.527H68.3408V502.496ZM68.3408 494.559H67.544V490.59H68.3408V494.559ZM68.3408 486.621H67.544V482.653H68.3408V486.621ZM68.3408 478.684H67.544V474.715H68.3408V478.684ZM68.3408 470.747H67.544V466.778H68.3408V470.747ZM68.3408 462.81H67.544V458.841H68.3408V462.81ZM68.3408 454.872H67.544V450.904H68.3408V454.872ZM68.3408 446.935H67.544V442.967H68.3408V446.935ZM68.3408 438.998H67.544V435.029H68.3408V438.998ZM68.3408 431.061H67.544V427.092H68.3408V431.061ZM68.3408 423.124H67.544V419.155H68.3408V423.124ZM68.3408 415.187H67.544V411.218H68.3408V415.187ZM68.3408 407.249H67.544V403.281H68.3408V407.249ZM68.3408 399.312H67.544V395.343H68.3408V399.312ZM68.3408 391.375H67.544V387.406H68.3408V391.375ZM68.3408 383.438H67.544V379.469H68.3408V383.438ZM68.3408 375.5H67.544V371.532H68.3408V375.5ZM68.3408 367.563H67.544V363.595H68.3408V367.563ZM68.3408 359.626H67.544V355.657H68.3408V359.626ZM68.3408 351.689H67.544V347.72H68.3408V351.689ZM68.3408 343.752H67.544V339.783H68.3408V343.752ZM68.3408 335.814H67.544V331.846H68.3408V335.814ZM68.3408 327.877H67.544V323.909H68.3408V327.877ZM68.3408 319.94H67.544V315.971H68.3408V319.94ZM68.3408 312.003H67.544V308.034H68.3408V312.003ZM68.3408 304.066H67.544V301.934C67.544 301.315 67.5535 300.7 67.5694 300.084L68.3662 300.107C68.3503 300.712 68.3408 301.322 68.3408 301.931V304.062V304.066ZM68.6011 296.176L67.8075 296.103C67.9281 294.777 68.09 293.445 68.29 292.141L69.0773 292.261C68.8805 293.549 68.7186 294.866 68.6011 296.173V296.176ZM69.7948 288.385L69.017 288.217C69.2996 286.922 69.6265 285.618 69.9884 284.346L70.7567 284.565C70.398 285.825 70.0741 287.109 69.798 288.388L69.7948 288.385ZM71.9535 280.809L71.2011 280.543C71.6424 279.293 72.1313 278.04 72.6519 276.818L73.3852 277.132C72.8709 278.341 72.3884 279.578 71.9503 280.812L71.9535 280.809ZM75.0487 273.548L74.3376 273.189C74.9313 272.006 75.5725 270.823 76.2424 269.677L76.9313 270.08C76.2709 271.213 75.636 272.38 75.0487 273.548ZM79.0233 266.733L78.3598 266.289C79.0963 265.189 79.8804 264.097 80.6868 263.041L81.3217 263.523C80.5249 264.567 79.7535 265.645 79.0233 266.73V266.733ZM83.8138 260.468L83.2106 259.945C84.0773 258.945 84.9884 257.959 85.9186 257.01L86.4868 257.569C85.5693 258.504 84.6678 259.478 83.8106 260.465L83.8138 260.468ZM89.3376 254.844L88.8042 254.25C89.7852 253.368 90.8138 252.499 91.855 251.674L92.3503 252.299C91.3217 253.115 90.309 253.971 89.3376 254.844ZM95.5122 249.949L95.055 249.295C96.1439 248.537 97.2677 247.804 98.3979 247.116L98.8106 247.798C97.6931 248.477 96.582 249.2 95.509 249.949H95.5122ZM102.245 245.853L101.874 245.149C103.049 244.53 104.255 243.943 105.461 243.404L105.788 244.131C104.598 244.664 103.407 245.244 102.245 245.853ZM109.426 242.63L109.147 241.885C110.391 241.418 111.664 240.984 112.928 240.6L113.16 241.361C111.912 241.742 110.655 242.17 109.426 242.63ZM116.969 240.327L116.785 239.553C118.071 239.245 119.388 238.976 120.699 238.75L120.836 239.534C119.544 239.759 118.242 240.026 116.972 240.327H116.969ZM124.737 238.982L124.652 238.189C125.972 238.046 127.312 237.938 128.633 237.878L128.671 238.674C127.366 238.734 126.042 238.839 124.737 238.982ZM220.607 238.601H219.991V237.805H220.607C221.712 237.805 222.832 237.776 223.937 237.719L223.978 238.516C222.858 238.573 221.724 238.601 220.607 238.601ZM216.02 238.601H212.048V237.805H216.02V238.601ZM208.077 238.601H204.105V237.805H208.077V238.601ZM200.134 238.601H196.163V237.805H200.134V238.601ZM192.191 238.601H188.22V237.805H192.191V238.601ZM184.248 238.601H180.277V237.805H184.248V238.601ZM176.306 238.601H172.334V237.805H176.306V238.601ZM168.363 238.601H164.391V237.805H168.363V238.601ZM160.42 238.601H156.448V237.805H160.42V238.601ZM152.477 238.601H148.506V237.805H152.477V238.601ZM144.534 238.601H140.563V237.805H144.534V238.601ZM136.591 238.601H132.62V237.805H136.591V238.601ZM227.962 238.186L227.874 237.396C229.175 237.247 230.489 237.056 231.775 236.828L231.915 237.611C230.61 237.843 229.28 238.036 227.962 238.186ZM235.823 236.79L235.635 236.016C236.908 235.705 238.188 235.353 239.439 234.966L239.677 235.727C238.413 236.12 237.118 236.479 235.826 236.79H235.823ZM243.455 234.42L243.169 233.675C244.391 233.208 245.616 232.697 246.813 232.155L247.143 232.881C245.931 233.43 244.689 233.951 243.451 234.42H243.455ZM250.734 231.111L250.359 230.407C251.512 229.795 252.664 229.132 253.785 228.443L254.2 229.122C253.067 229.82 251.899 230.49 250.734 231.108V231.111ZM257.537 226.927L257.077 226.277C258.143 225.525 259.204 224.729 260.229 223.907L260.727 224.529C259.689 225.36 258.613 226.169 257.534 226.93L257.537 226.927ZM263.769 221.93L263.232 221.34C264.201 220.462 265.153 219.539 266.067 218.6L266.639 219.155C265.715 220.106 264.747 221.039 263.769 221.93ZM269.334 216.208L268.727 215.687C269.585 214.691 270.416 213.66 271.2 212.62L271.839 213.099C271.042 214.152 270.197 215.199 269.334 216.208ZM274.146 209.844L273.483 209.403C274.204 208.315 274.902 207.189 275.559 206.053L276.251 206.453C275.588 207.601 274.88 208.743 274.15 209.844H274.146ZM278.131 202.938L277.416 202.582C277.997 201.412 278.55 200.206 279.054 199.004L279.791 199.312C279.277 200.53 278.721 201.751 278.131 202.935V202.938ZM281.219 195.594L280.467 195.33C280.902 194.087 281.299 192.821 281.648 191.571L282.416 191.784C282.064 193.049 281.661 194.334 281.219 195.594ZM283.372 187.91L282.591 187.745C282.864 186.461 283.102 185.157 283.292 183.866L284.08 183.983C283.886 185.29 283.648 186.61 283.372 187.91ZM284.546 180.017L283.753 179.951C283.864 178.65 283.937 177.327 283.969 176.014L284.765 176.033C284.734 177.362 284.661 178.704 284.546 180.017ZM284.781 172.055H283.985V168.086H284.781V172.055ZM284.781 164.118H283.985V160.149H284.781V164.118ZM284.781 156.181H283.985V152.212H284.781V156.181ZM284.781 148.243H283.985V144.275H284.781V148.243ZM284.781 140.306H283.985V136.337H284.781V140.306ZM284.781 132.369H283.985V128.4H284.781V132.369ZM284.781 124.432H283.985V120.463H284.781V124.432ZM284.781 116.494H283.985V112.526H284.781V116.494ZM284.781 108.557H283.985V104.589H284.781V108.557ZM284.781 100.62H283.985V96.6515H284.781V100.62ZM284.781 92.6829H283.985V88.7143H284.781V92.6829ZM284.781 84.7457H283.985V80.7771H284.781V84.7457ZM284.781 76.8085H283.985V72.8399H284.781V76.8085ZM284.781 68.8713H283.985V64.9027H284.781V68.8713ZM284.781 60.9341H283.985V56.9655H284.781V60.9341ZM284.781 52.9969H283.985V49.0283H284.781V52.9969ZM284.781 45.0597H283.985V41.0911H284.781V45.0597ZM284.781 37.1225H283.985V33.1539H284.781V37.1225ZM284.781 29.1853H283.985V25.2167H284.781V29.1853ZM284.781 21.2481H283.985V17.2795H284.781V21.2481ZM284.781 13.3109H283.985V9.34227H284.781V13.3109ZM284.781 5.37366H283.985V1.40506H284.781V5.37366ZM284.781 -2.56354H283.985V-6.53214H284.781V-2.56354ZM284.781 -10.5007H283.985V-14.4693H284.781V-10.5007ZM284.781 -18.4379H283.985V-22.4065H284.781V-18.4379ZM284.781 -26.3751H283.985V-30.3437H284.781V-26.3751ZM284.781 -34.3123H283.985V-38.2809H284.781V-34.3123ZM284.781 -42.2495H283.985V-46.2182H284.781V-42.2495ZM284.781 -50.1867H283.985V-54.1554H284.781V-50.1867ZM284.781 -58.124H283.985V-62.0926H284.781V-58.124ZM284.781 -66.0612H283.985V-70.0298H284.781V-66.0612ZM284.781 -73.9984H283.985V-77.967H284.781V-73.9984ZM284.781 -81.9356H283.985V-85.9042H284.781V-81.9356ZM284.781 -89.8728H283.985V-93.8414H284.781V-89.8728ZM284.781 -97.81H283.985V-101.779H284.781V-97.81Z" fill="#598DEC"/>
<path d="M169.985 643.627H169.188V639.617H169.985V643.627ZM169.985 635.607H169.188V631.598H169.985V635.607ZM394 629.361H393.203V625.351H394V629.361ZM169.985 627.588H169.188V623.578H169.985V627.588ZM394 621.345H393.203V617.335H394V621.345ZM169.985 619.568H169.188V615.558H169.985V619.568ZM394 613.325H393.203V609.315H394V613.325ZM169.985 611.551H169.188V607.542H169.985V611.551ZM394 605.305H393.203V601.295H394V605.305ZM169.985 603.532H169.188V599.522H169.985V603.532ZM394 597.285H393.203V593.276H394V597.285ZM169.985 595.512H169.188V591.502H169.985V595.512ZM394 589.266H393.203V586.369C393.203 586.001 393.203 585.63 393.194 585.265L393.99 585.253C393.997 585.624 394 585.998 394 586.373V589.269V589.266ZM169.985 587.492H169.188V586.369C169.188 585.402 169.21 584.425 169.252 583.467L170.048 583.502C170.007 584.447 169.985 585.415 169.985 586.369V587.492ZM393.003 581.287C392.898 579.968 392.749 578.638 392.562 577.328L393.352 577.217C393.543 578.54 393.692 579.888 393.797 581.224L393.003 581.287ZM170.35 579.533L169.556 579.447C169.699 578.115 169.886 576.77 170.112 575.453L170.896 575.59C170.674 576.89 170.486 578.217 170.347 579.533H170.35ZM391.873 573.407C391.603 572.11 391.289 570.806 390.937 569.537L391.705 569.324C392.06 570.609 392.378 571.929 392.651 573.245L391.87 573.407H391.873ZM171.699 571.685L170.925 571.501C171.233 570.197 171.588 568.887 171.982 567.608L172.744 567.843C172.356 569.106 172.007 570.4 171.702 571.685H171.699ZM389.762 565.73C389.33 564.48 388.854 563.224 388.343 562.003L389.079 561.695C389.597 562.932 390.079 564.204 390.514 565.47L389.762 565.73ZM174.023 564.074L173.277 563.795C173.75 562.542 174.267 561.289 174.813 560.074L175.54 560.401C174.998 561.603 174.486 562.84 174.023 564.074ZM386.689 558.374C386.102 557.187 385.47 556.004 384.81 554.855L385.502 554.459C386.171 555.62 386.81 556.819 387.403 558.018L386.689 558.37V558.374ZM177.29 556.822L176.585 556.451C177.21 555.268 177.883 554.088 178.579 552.949L179.258 553.364C178.569 554.491 177.906 555.652 177.286 556.822H177.29ZM382.717 551.464C381.984 550.36 381.21 549.266 380.413 548.212L381.048 547.73C381.854 548.796 382.641 549.903 383.381 551.023L382.717 551.461V551.464ZM181.445 550.037L180.791 549.58C181.559 548.485 182.372 547.4 183.21 546.353L183.832 546.852C183.004 547.886 182.201 548.958 181.442 550.037H181.445ZM377.908 545.11C377.041 544.101 376.137 543.115 375.216 542.172L375.787 541.617C376.717 542.572 377.635 543.575 378.511 544.593L377.908 545.113V545.11ZM186.42 543.822L185.829 543.286C186.731 542.293 187.674 541.319 188.632 540.386L189.188 540.957C188.239 541.877 187.309 542.842 186.42 543.822ZM372.349 539.406C371.368 538.518 370.346 537.652 369.314 536.827L369.81 536.205C370.857 537.039 371.892 537.918 372.883 538.816L372.346 539.406H372.349ZM192.131 538.27L191.61 537.664C192.623 536.795 193.683 535.945 194.756 535.133L195.236 535.771C194.175 536.57 193.131 537.411 192.131 538.267V538.27ZM366.121 534.448C365.038 533.69 363.914 532.957 362.787 532.268L363.203 531.589C364.346 532.284 365.479 533.026 366.578 533.794L366.121 534.448ZM198.496 533.474L198.058 532.811C199.182 532.072 200.337 531.358 201.496 530.695L201.893 531.386C200.747 532.043 199.604 532.744 198.496 533.477V533.474ZM359.324 530.301C358.153 529.686 356.949 529.099 355.746 528.56L356.073 527.833C357.292 528.379 358.511 528.972 359.695 529.597L359.324 530.301ZM205.417 529.512L205.064 528.798C206.274 528.205 207.512 527.643 208.743 527.129L209.048 527.865C207.829 528.37 206.607 528.925 205.413 529.512H205.417ZM352.067 527.047C350.829 526.583 349.559 526.152 348.292 525.768L348.524 525.007C349.807 525.397 351.092 525.832 352.346 526.301L352.067 527.047ZM212.782 526.45L212.524 525.698C213.791 525.264 215.09 524.864 216.382 524.512L216.591 525.28C215.315 525.629 214.036 526.022 212.782 526.45ZM344.445 524.731C343.156 524.426 341.841 524.16 340.54 523.941L340.673 523.154C341.994 523.379 343.324 523.649 344.629 523.957L344.445 524.731ZM220.464 524.347L220.302 523.567C221.62 523.294 222.956 523.062 224.277 522.875L224.388 523.665C223.083 523.849 221.763 524.077 220.461 524.347H220.464ZM336.591 523.392C335.28 523.252 333.943 523.154 332.616 523.097L332.651 522.301C333.994 522.358 335.349 522.459 336.673 522.602L336.591 523.395V523.392ZM228.353 523.233L228.289 522.44C229.62 522.336 230.975 522.272 232.318 522.25L232.331 523.046C231.004 523.068 229.664 523.129 228.35 523.233H228.353ZM328.626 523.037H324.613V522.24H328.626V523.037ZM320.6 523.037H316.588V522.24H320.6V523.037ZM312.575 523.037H308.562V522.24H312.575V523.037ZM304.55 523.037H300.537V522.24H304.55V523.037ZM296.524 523.037H292.511V522.24H296.524V523.037ZM288.499 523.037H284.486V522.24H288.499V523.037ZM280.477 523.037H276.464V522.24H280.477V523.037ZM272.451 523.037H268.439V522.24H272.451V523.037ZM264.426 523.037H260.413V522.24H264.426V523.037ZM256.4 523.037H252.388V522.24H256.4V523.037ZM248.378 523.037H244.366V522.24H248.378V523.037ZM240.353 523.037H236.34V522.24H240.353V523.037Z" fill="#598DEC"/>
<path d="M42.7631 213.143H38.7663V212.347H42.7631V213.143ZM34.7695 213.143H30.7726V212.347H34.7695V213.143ZM26.779 213.143H22.7822V212.347H26.779V213.143ZM18.7854 213.143H14.7886V212.347H18.7854V213.143ZM10.7949 213.143H6.79811V212.347H10.7949V213.143ZM2.8013 213.143H-1.1955V212.347H2.8013V213.143ZM-5.18912 213.143H-9.18596V212.347H-5.18912V213.143ZM-13.1796 213.143H-17.1764V212.347H-13.1796V213.143ZM-21.1732 213.143H-25.17V212.347H-21.1732V213.143ZM-29.1637 213.143H-33.1605V212.347H-29.1637V213.143ZM-37.1573 213.143H-41.1541V212.347H-37.1573V213.143ZM-45.1478 213.143H-49.1446V212.347H-45.1478V213.143ZM-53.1382 213.143H-57.135V212.347H-53.1382V213.143ZM-61.1318 213.143H-65.1286V212.347H-61.1318V213.143ZM-69.1223 213.143H-73.1191V212.347H-69.1223V213.143ZM-77.1159 213.143H-81.1127V212.347H-77.1159V213.143ZM-85.1064 213.143H-89.1031V212.347H-85.1064V213.143ZM-93.1 213.143H-97.0968V212.347H-93.1V213.143ZM-101.09 213.143H-105.087V212.347H-101.09V213.143ZM-109.081 213.143H-113.078V212.347H-109.081V213.143ZM-117.074 213.143H-121.071V212.347H-117.074V213.143ZM-125.065 213.143H-129.062V212.347H-125.065V213.143ZM-133.059 213.143H-137.055V212.347H-133.059V213.143ZM-141.049 213.143H-141.547C-142.716 213.143 -143.9 213.111 -145.062 213.048L-145.02 212.252C-143.871 212.312 -142.703 212.344 -141.547 212.344H-141.049V213.14V213.143ZM46.7758 213.048L46.7313 212.252C48.0519 212.179 49.3821 212.065 50.6869 211.912L50.7789 212.702C49.4583 212.858 48.1123 212.972 46.7758 213.045V213.048ZM-149.068 212.709C-150.395 212.553 -151.732 212.356 -153.043 212.118L-152.9 211.335C-151.605 211.57 -150.284 211.766 -148.973 211.919L-149.065 212.709H-149.068ZM54.7535 212.112L54.6107 211.329C55.9091 211.094 57.2138 210.815 58.4932 210.497L58.6837 211.271C57.3884 211.592 56.0678 211.874 54.7535 212.112ZM-156.973 211.281C-158.265 210.964 -159.566 210.599 -160.843 210.196L-160.604 209.435C-159.344 209.831 -158.058 210.19 -156.782 210.507L-156.973 211.281ZM62.5535 210.186L62.3122 209.425C63.5725 209.029 64.8329 208.588 66.0646 208.112L66.3503 208.854C65.1027 209.336 63.8265 209.784 62.5503 210.183L62.5535 210.186ZM-164.636 208.867C-165.877 208.388 -167.119 207.864 -168.331 207.306L-167.998 206.583C-166.801 207.132 -165.573 207.652 -164.347 208.124L-164.633 208.867H-164.636ZM70.0582 207.287L69.7249 206.564C70.9185 206.015 72.1154 205.415 73.2804 204.79L73.6582 205.491C72.4773 206.126 71.2677 206.732 70.0582 207.287ZM-171.925 205.52C-173.097 204.889 -174.265 204.213 -175.398 203.509L-174.976 202.833C-173.858 203.528 -172.703 204.197 -171.544 204.819L-171.922 205.52H-171.925ZM77.1376 203.471L76.7154 202.795C77.8328 202.1 78.9439 201.358 80.0169 200.59L80.4804 201.237C79.3915 202.015 78.2677 202.763 77.1376 203.471ZM-178.744 201.282C-179.83 200.508 -180.906 199.689 -181.941 198.852L-181.439 198.233C-180.417 199.061 -179.354 199.87 -178.281 200.635L-178.744 201.285V201.282ZM83.6804 198.804L83.1788 198.186C84.201 197.354 85.2137 196.482 86.1788 195.587L86.7185 196.174C85.7375 197.078 84.7153 197.963 83.6804 198.804ZM-184.982 196.225C-185.963 195.324 -186.928 194.379 -187.855 193.414L-187.281 192.862C-186.366 193.814 -185.411 194.747 -184.442 195.638L-184.982 196.225ZM89.5883 193.36L89.0137 192.808C89.9248 191.86 90.8169 190.867 91.6677 189.858L92.2772 190.372C91.4169 191.39 90.5121 192.396 89.5915 193.357L89.5883 193.36ZM-190.544 190.432C-191.408 189.414 -192.249 188.354 -193.046 187.285L-192.408 186.81C-191.62 187.866 -190.789 188.91 -189.938 189.915L-190.547 190.429L-190.544 190.432ZM94.7724 187.228L94.1312 186.752C94.9185 185.693 95.6804 184.598 96.3978 183.498L97.0645 183.932C96.3407 185.046 95.5693 186.156 94.7693 187.228H94.7724ZM-195.347 183.992C-196.077 182.873 -196.779 181.718 -197.436 180.557L-196.744 180.163C-196.093 181.309 -195.401 182.451 -194.681 183.555L-195.347 183.989V183.992ZM99.1502 180.503L98.455 180.113C99.1026 178.964 99.7216 177.784 100.296 176.604L101.014 176.953C100.433 178.149 99.8073 179.345 99.1502 180.506V180.503ZM-199.309 176.997C-199.893 175.792 -200.446 174.558 -200.954 173.327L-200.217 173.026C-199.719 174.241 -199.173 175.462 -198.595 176.652L-199.312 177.001L-199.309 176.997ZM102.649 173.289L101.912 172.988C102.411 171.769 102.877 170.52 103.299 169.273L104.055 169.527C103.63 170.789 103.157 172.055 102.652 173.289H102.649ZM-202.36 169.558C-202.785 168.296 -203.179 167.005 -203.525 165.717L-202.754 165.51C-202.411 166.783 -202.023 168.061 -201.601 169.305L-202.357 169.558H-202.36ZM105.217 165.678L104.445 165.472C104.785 164.203 105.093 162.903 105.353 161.612L106.134 161.77C105.871 163.077 105.56 164.394 105.217 165.678ZM-204.446 161.805C-204.709 160.498 -204.938 159.166 -205.119 157.846L-204.328 157.738C-204.147 159.042 -203.925 160.358 -203.665 161.65L-204.446 161.808V161.805ZM106.807 157.811L106.017 157.703C106.195 156.403 106.337 155.073 106.433 153.76L107.226 153.82C107.128 155.153 106.985 156.495 106.804 157.814L106.807 157.811ZM-205.544 153.852C-205.642 152.523 -205.703 151.175 -205.719 149.842L-204.922 149.833C-204.906 151.149 -204.849 152.482 -204.75 153.795L-205.544 153.855V153.852ZM107.401 149.804L106.604 149.795C106.604 149.534 106.607 149.274 106.607 149.014V145.807H107.404V149.014C107.404 149.278 107.404 149.541 107.401 149.804ZM-204.925 145.842H-205.722V141.848H-204.925V145.842ZM107.404 141.816H106.607V137.822H107.404V141.816ZM-204.925 137.857H-205.722V133.863H-204.925V137.857ZM107.404 133.828H106.607V129.834H107.404V133.828ZM-204.925 129.872H-205.722V125.878H-204.925V129.872ZM107.404 125.843H106.607V121.849H107.404V125.843ZM-204.925 121.884H-205.722V117.89H-204.925V121.884ZM107.404 117.855H106.607V113.861H107.404V117.855ZM-204.925 113.9H-205.722V109.906H-204.925V113.9ZM107.404 109.871H106.607V105.877H107.404V109.871ZM-204.925 105.912H-205.722V101.918H-204.925V105.912ZM107.404 101.883H106.607V97.8887H107.404V101.883ZM-204.925 97.9268H-205.722V93.9328H-204.925V97.9268ZM107.404 93.8979H106.607V89.9039H107.404V93.8979ZM-204.925 89.942H-205.722V85.948H-204.925V89.942ZM107.404 85.9131H106.607V81.9191H107.404V85.9131ZM-204.925 81.954H-205.722V77.9601H-204.925V81.954ZM107.404 77.9252H106.607V73.9312H107.404V77.9252ZM-204.925 73.9693H-205.722V69.9753H-204.925V73.9693ZM107.404 69.9404H106.607V65.9464H107.404V69.9404ZM-204.925 65.9813H-205.722V61.9873H-204.925V65.9813ZM107.404 61.9524H106.607V57.9584H107.404V61.9524ZM-204.925 57.9965H-205.722V54.0025H-204.925V57.9965ZM107.404 53.9676H106.607V49.9736H107.404V53.9676ZM-204.925 50.0085H-205.722V46.0146H-204.925V50.0085ZM107.404 45.9828H106.607V41.9889H107.404V45.9828ZM-204.925 42.0238H-205.722V38.0298H-204.925V42.0238ZM107.404 37.9949H106.607V34.0009H107.404V37.9949ZM-204.925 34.039H-205.722V30.045H-204.925V34.039ZM107.404 30.0101H106.607V26.0161H107.404V30.0101ZM-204.925 26.051H-205.722V22.057H-204.925V26.051ZM107.404 22.0221H106.607V18.0282H107.404V22.0221ZM-204.925 18.0662H-205.722V14.0722H-204.925V18.0662ZM107.404 14.0373H106.607V10.0434H107.404V14.0373ZM-204.925 10.0783H-205.722V6.08427H-204.925V10.0783ZM107.404 6.04939H106.607V2.0554H107.404V6.04939ZM-204.925 2.09348H-205.722V-1.90051H-204.925V2.09348ZM107.404 -1.93541H106.607V-5.92938H107.404V-1.93541ZM-204.925 -5.89132H-205.722V-9.8853H-204.925V-5.89132ZM107.404 -9.92019H106.607V-13.9142H107.404V-9.92019ZM-204.925 -13.8793H-205.722V-17.8733H-204.925V-13.8793ZM107.404 -17.9081H106.607V-21.9021H107.404V-17.9081ZM-204.925 -21.8641H-205.722V-25.858H-204.925V-21.8641ZM107.404 -25.8929H106.607V-29.8869H107.404V-25.8929ZM-204.925 -29.852H-205.722V-33.846H-204.925V-29.852ZM107.404 -33.8809H106.607V-37.8749H107.404V-33.8809ZM-204.925 -37.8368H-205.722V-41.8308H-204.925V-37.8368ZM107.404 -41.8657H106.607V-45.8597H107.404V-41.8657ZM-204.925 -45.8248H-205.722V-49.8188H-204.925V-45.8248ZM107.404 -49.8536H106.607V-53.8476H107.404V-49.8536ZM-204.925 -53.8096H-205.722V-57.8035H-204.925V-53.8096ZM107.404 -57.8384H106.607V-61.8324H107.404V-57.8384ZM-204.925 -61.7943H-205.722V-65.7883H-204.925V-61.7943ZM107.404 -65.8232H106.607V-69.8172H107.404V-65.8232ZM-204.925 -69.7823H-205.722V-73.7763H-204.925V-69.7823ZM107.404 -73.8112H106.607V-77.8052H107.404V-73.8112ZM107.404 -81.796H106.607V-85.7899H107.404V-81.796ZM107.404 -89.7839H106.607V-93.7779H107.404V-89.7839ZM107.404 -97.7687H106.607V-101.763H107.404V-97.7687Z" fill="#598DEC"/>
<path d="M76.3154 137.86H-143.712C-165.912 137.86 -183.973 119.813 -183.973 97.6287V72.1357C-183.973 50.3925 -201.674 32.7035 -223.433 32.7035H-436.289V31.9072H-223.436C-201.236 31.9072 -183.176 49.9547 -183.176 72.1389V97.6318C-183.176 119.375 -165.474 137.064 -143.716 137.064H76.3123V137.86H76.3154Z" fill="#6293EC"/>
<path d="M-169.382 273.69H-414.019V272.894H-169.382C-147.624 272.894 -129.922 255.205 -129.922 233.462V117.551C-129.922 95.3668 -111.862 77.3193 -89.6618 77.3193H8.42993C30.1886 77.3193 47.8901 59.6303 47.8901 37.8871V-134H48.687V37.8839C48.687 60.0681 30.6267 78.1156 8.42676 78.1156H-89.665C-111.424 78.1156 -129.125 95.8045 -129.125 117.548V233.459C-129.125 255.643 -147.185 273.69 -169.385 273.69H-169.382Z" fill="#6293EC"/>
<path d="M212.636 416.287H-216.938C-239.138 416.287 -257.198 398.24 -257.198 376.056V177.292C-257.198 155.549 -274.899 137.86 -296.658 137.86H-447.711V137.064H-296.658C-274.458 137.064 -256.398 155.111 -256.398 177.296V376.059C-256.398 397.802 -238.696 415.491 -216.938 415.491H212.636V416.287Z" fill="#6293EC"/>
<path d="M-5.5891 726.181H-6.38593V332.642C-6.38593 310.458 11.6743 292.41 33.8742 292.41H120.96V293.207H33.8742C12.1156 293.207 -5.58592 310.896 -5.58592 332.639V726.178L-5.5891 726.181Z" fill="#6293EC"/>
<path d="M131.045 775H130.249V556.721C130.249 534.977 112.547 517.288 90.7883 517.288H-213.068C-234.826 517.288 -252.528 534.977 -252.528 556.721V688.738H-253.325V556.721C-253.325 534.536 -235.265 516.489 -213.065 516.489H90.7915C112.991 516.489 131.052 534.536 131.052 556.721V775H131.045Z" fill="#6293EC"/>
<path d="M213.035 -107.815H212.239V200.796H213.035V-107.815Z" fill="#6293EC"/>
<path d="M301.524 659.264H300.727V384.646C300.727 362.903 283.026 345.214 261.267 345.214H212.639V344.418H261.267C283.467 344.418 301.527 362.465 301.527 384.65V659.267L301.524 659.264Z" fill="#6293EC"/>
<path d="M323.429 46.8902H170.506C148.306 46.8902 130.245 28.8427 130.245 6.65853V-79.7593H131.042V6.65853C131.042 28.4018 148.744 46.0908 170.502 46.0908H323.426V46.887L323.429 46.8902Z" fill="#6293EC"/>
<path d="M331.558 48.5516C332.62 44.055 329.833 39.5495 325.333 38.4882C320.833 37.4269 316.325 40.2117 315.263 44.7083C314.201 49.2049 316.987 53.7104 321.487 54.7717C325.987 55.833 330.496 53.0481 331.558 48.5516Z" fill="#6293EC"/>
<path d="M212.635 209.562C217.259 209.562 221.007 205.816 221.007 201.196C221.007 196.576 217.259 192.831 212.635 192.831C208.012 192.831 204.264 196.576 204.264 201.196C204.264 205.816 208.012 209.562 212.635 209.562Z" fill="#6293EC"/>
<path d="M218.556 350.505C221.825 347.238 221.825 341.942 218.556 338.675C215.286 335.408 209.986 335.408 206.717 338.675C203.447 341.942 203.447 347.238 206.717 350.505C209.986 353.772 215.286 353.772 218.556 350.505Z" fill="#6293EC"/>
<path d="M129.079 294.706C130.141 290.21 127.354 285.704 122.855 284.643C118.355 283.581 113.846 286.366 112.784 290.863C111.722 295.359 114.509 299.865 119.009 300.926C123.508 301.988 128.017 299.203 129.079 294.706Z" fill="#6293EC"/>
<path d="M218.553 422.201C221.823 418.935 221.823 413.638 218.553 410.371C215.284 407.104 209.984 407.104 206.714 410.371C203.445 413.638 203.445 418.934 206.714 422.201C209.984 425.468 215.284 425.468 218.553 422.201Z" fill="#6293EC"/>
<path d="M82.2336 143.377C85.5029 140.111 85.5029 134.814 82.2336 131.547C78.9644 128.28 73.6639 128.28 70.3947 131.547C67.1255 134.814 67.1255 140.111 70.3947 143.377C73.6639 146.644 78.9644 146.644 82.2336 143.377Z" fill="#6293EC"/>
<path d="M214.924 97.5729C217.974 96.3104 219.423 92.8161 218.159 89.7682C216.896 86.7202 213.399 85.2728 210.349 86.5353C207.299 87.7978 205.85 91.2922 207.114 94.3401C208.377 97.3881 211.874 98.8354 214.924 97.5729Z" fill="#6293EC"/>
<path d="M303.413 447.3C306.463 446.037 307.911 442.543 306.648 439.495C305.385 436.447 301.888 434.999 298.838 436.262C295.788 437.524 294.339 441.019 295.603 444.067C296.866 447.115 300.363 448.562 303.413 447.3Z" fill="#6293EC"/>
<path d="M301.124 479.62C304.425 479.62 307.102 476.945 307.102 473.646C307.102 470.347 304.425 467.673 301.124 467.673C297.823 467.673 295.146 470.347 295.146 473.646C295.146 476.945 297.823 479.62 301.124 479.62Z" fill="#6293EC"/>
<path d="M-5.79862 384.818C-2.4972 384.818 0.179119 382.143 0.179119 378.844C0.179119 375.545 -2.4972 372.871 -5.79862 372.871C-9.10005 372.871 -11.7764 375.545 -11.7764 378.844C-11.7764 382.143 -9.10005 384.818 -5.79862 384.818Z" fill="#6293EC"/>
<path d="M115.274 421.807C118.324 420.544 119.772 417.05 118.509 414.002C117.245 410.954 113.749 409.507 110.699 410.769C107.648 412.032 106.2 415.526 107.463 418.574C108.727 421.622 112.224 423.069 115.274 421.807Z" fill="#6293EC"/>
<path d="M54.2081 -2.9757C54.9665 -6.18657 52.9765 -9.40382 49.7634 -10.1617C46.5502 -10.9195 43.3307 -8.93092 42.5723 -5.72006C41.8139 -2.50919 43.8039 0.708096 47.0171 1.46593C50.2302 2.22376 53.4498 0.235162 54.2081 -2.9757Z" fill="#6293EC"/>
</g>
<defs>
<clipPath id="clip0_258_122">
<rect width="925" height="909" fill="white" transform="translate(-531 -134)"/>
</clipPath>
</defs>
</svg>
